<svg height="512" viewBox="0 0 512 512" width="512" xmlns="http://www.w3.org/2000/svg"><g><g fill="#57a4ff"><path d="m64 136v248h384v-248zm176 88h32v48h-32z"/><path d="m433.544 100.083 39.598-39.598 16.971 16.971 5.657-62.226-62.226 5.657 16.971 16.971-39.598 39.598z"/><path d="m38.544 60.485 39.598 39.598 22.628-22.627-39.598-39.598 16.97-16.971-62.225-5.657 5.657 62.226z"/><path d="m78.142 411.23-39.598 39.598-16.97-16.97-5.657 62.225 62.225-5.657-16.97-16.97 39.598-39.598z"/><path d="m473.142 450.828-39.598-39.598-22.627 22.628 39.598 39.598-16.971 16.97 62.226 5.657-5.657-62.225z"/></g><g fill="#004fac"><path d="m448 128h-104v-24a48.051 48.051 0 0 0 -48-48h-80a48.051 48.051 0 0 0 -48 48v24h-104a8 8 0 0 0 -8 8v248a8 8 0 0 0 8 8h384a8 8 0 0 0 8-8v-248a8 8 0 0 0 -8-8zm-264-24a32.03 32.03 0 0 1 32-32h80a32.03 32.03 0 0 1 32 32v24h-16v-20a20.02 20.02 0 0 0 -20-20h-72a20.02 20.02 0 0 0 -20 20v20h-16zm112 4v20h-80v-20a4 4 0 0 1 4-4h72a4 4 0 0 1 4 4zm144 268h-368v-157.46a87.957 87.957 0 0 0 72 37.46h88v16a8 8 0 0 0 8 8h32a8 8 0 0 0 8-8v-16h88a87.957 87.957 0 0 0 72-37.46zm-192-112v-32h16v32zm192-96a72.083 72.083 0 0 1 -72 72h-88v-16a8 8 0 0 0 -8-8h-32a8 8 0 0 0 -8 8v16h-88a72.083 72.083 0 0 1 -72-72v-23.79l.01-.21h367.99z"/><path d="m427.887 105.74a8 8 0 0 0 11.314 0l33.941-33.94 11.314 11.314a8 8 0 0 0 13.624-4.934l5.657-62.225a8 8 0 0 0 -8.692-8.692l-62.225 5.657a8 8 0 0 0 -4.933 13.624l11.313 11.314-33.94 33.942a8 8 0 0 0 0 11.314zm28.284-62.225a8 8 0 0 0 0-11.314l-4.893-4.893 35.655-3.241-3.241 35.655-4.892-4.893a8 8 0 0 0 -11.314 0l-33.942 33.941-11.314-11.314z"/><path d="m13.606 78.18a8 8 0 0 0 13.624 4.933l11.314-11.313 33.941 33.94a8 8 0 0 0 11.314 0l22.627-22.627a8 8 0 0 0 0-11.314l-33.941-33.941 11.315-11.314a8 8 0 0 0 -4.934-13.624l-62.225-5.657a8 8 0 0 0 -8.692 8.692zm46.8-50.872-4.891 4.892a8 8 0 0 0 0 11.314l33.941 33.942-11.314 11.314-33.942-33.941a8 8 0 0 0 -11.314 0l-4.893 4.892-3.24-35.654z"/><path d="m83.8 405.574a8 8 0 0 0 -11.314 0l-33.942 33.941-11.314-11.315a8 8 0 0 0 -13.624 4.933l-5.657 62.226a8 8 0 0 0 7.967 8.724c.241 0 .483-.01.725-.032l62.225-5.657a8 8 0 0 0 4.934-13.624l-11.315-11.314 33.941-33.941a8 8 0 0 0 0-11.314zm-28.285 62.226a8 8 0 0 0 0 11.314l4.892 4.893-35.654 3.241 3.241-35.654 4.893 4.892a8 8 0 0 0 11.314 0l33.941-33.941 11.314 11.314z"/><path d="m498.08 433.134a8 8 0 0 0 -13.624-4.933l-11.314 11.314-33.942-33.941a8 8 0 0 0 -11.314 0l-22.626 22.626a8 8 0 0 0 0 11.314l33.94 33.942-11.313 11.314a8 8 0 0 0 4.933 13.624l62.225 5.657c.243.022.484.032.725.032a8 8 0 0 0 7.967-8.724zm-46.8 50.872 4.892-4.893a8 8 0 0 0 0-11.314l-33.942-33.941 11.314-11.314 33.941 33.941a8 8 0 0 0 11.314 0l4.893-4.893 3.241 35.655z"/></g></g></svg>